<svg width="214" height="177" viewBox="0 0 214 177" fill="none" xmlns="http://www.w3.org/2000/svg">
<path fill-rule="evenodd" clip-rule="evenodd" d="M110.466 9.97936C109.993 9.78424 109.487 9.68425 108.975 9.68514L108.971 9.68514C107.938 9.68604 106.948 10.0967 106.218 10.8269C105.488 11.5567 105.078 12.5461 105.076 13.5782V18.4788H95.3912L95.3912 13.5716C95.3943 9.97318 96.8251 6.52299 99.3696 3.97848C101.914 1.43445 105.363 0.00364634 108.961 1.56791e-05L108.963 1.37119e-05C110.746 -0.00252082 112.513 0.346336 114.161 1.02667C115.811 1.70753 117.31 2.70703 118.573 3.96797C119.836 5.22891 120.839 6.72654 121.522 8.37516C122.206 10.0238 122.558 11.791 122.558 13.5758V18.2975H112.873V13.5758C112.873 13.0643 112.772 12.5578 112.576 12.0854C112.38 11.6129 112.093 11.1837 111.731 10.8223C111.369 10.4609 110.939 10.1745 110.466 9.97936ZM108.963 1.37119e-05L108.961 1.56791e-05L108.963 1.37119e-05Z" fill="url(#paint0_linear_256_20150)"/>
<path d="M109.564 176.742C129.637 176.742 145.91 160.47 145.91 140.396C145.91 120.323 129.637 104.051 109.564 104.051C89.4907 104.051 73.2182 120.323 73.2182 140.396C73.2182 160.47 89.4907 176.742 109.564 176.742Z" fill="url(#paint1_linear_256_20150)"/>
<path d="M166.911 100.326V72.4415C166.911 57.2319 160.87 42.6453 150.115 31.8905C139.36 21.1357 124.773 15.0938 109.564 15.0938C94.3541 15.0938 79.7675 21.1357 69.0127 31.8905C58.2579 42.6453 52.2159 57.2319 52.2159 72.4415V100.326C52.2166 106.732 50.4043 113.008 46.9886 118.427C43.573 123.847 38.6933 128.189 32.9137 130.953C31.5853 131.585 30.4639 132.582 29.6802 133.827C28.8964 135.073 28.4825 136.515 28.4866 137.986V138.137C28.4856 138.669 28.5894 139.195 28.7921 139.686C28.9948 140.178 29.2923 140.624 29.6677 141C30.0431 141.376 30.489 141.675 30.9799 141.878C31.4708 142.082 31.997 142.187 32.5284 142.187H186.592C187.123 142.187 187.649 142.082 188.14 141.878C188.631 141.675 189.077 141.376 189.452 141C189.828 140.624 190.125 140.178 190.328 139.686C190.53 139.195 190.634 138.669 190.633 138.137V137.986C190.634 136.52 190.219 135.083 189.437 133.842C188.655 132.601 187.537 131.607 186.214 130.975C180.431 128.21 175.549 123.865 172.133 118.441C168.717 113.016 166.907 106.736 166.911 100.326Z" fill="url(#paint2_linear_256_20150)"/>
<path d="M212.535 64.5615C212.578 64.4842 212.604 64.3986 212.611 64.3105C212.619 64.2223 212.607 64.1336 212.578 64.0501C212.549 63.9666 212.502 63.8903 212.441 63.8261C212.381 63.7619 212.307 63.7113 212.225 63.6776C209.838 62.7257 201.392 59.9003 196.776 65.5965C193.687 69.3403 189.322 71.8081 184.522 72.5242C184.401 72.5404 184.288 72.5927 184.198 72.6743C184.107 72.7559 184.043 72.8629 184.015 72.9814C183.986 73.0998 183.994 73.2242 184.037 73.3381C184.081 73.452 184.157 73.5501 184.257 73.6196C188.337 76.5131 201.815 83.8865 212.535 64.5615Z" fill="url(#paint3_linear_256_20150)"/>
<path d="M33.6284 104.51C33.6624 104.448 33.683 104.379 33.6888 104.308C33.6946 104.238 33.6854 104.166 33.6619 104.099C33.6384 104.032 33.6011 103.971 33.5523 103.92C33.5036 103.868 33.4446 103.827 33.3791 103.8C31.4677 103.044 24.6761 100.778 20.9667 105.311C18.4915 108.314 14.9938 110.297 11.1456 110.879C11.049 110.892 10.9585 110.933 10.8861 110.999C10.8137 111.064 10.7627 111.15 10.7398 111.244C10.717 111.339 10.7233 111.439 10.7579 111.53C10.7926 111.621 10.854 111.699 10.934 111.755C14.1901 114.112 25.016 120.035 33.6284 104.51Z" fill="url(#paint4_linear_256_20150)"/>
<path d="M193.952 95.9406C193.923 95.8888 193.905 95.8314 193.9 95.7723C193.896 95.7131 193.903 95.6537 193.923 95.5979C193.943 95.542 193.975 95.4911 194.017 95.4486C194.058 95.4061 194.108 95.3729 194.163 95.3513C195.765 94.7091 201.438 92.8129 204.536 96.6356C206.612 99.1504 209.545 100.808 212.77 101.289C212.856 101.297 212.937 101.332 213.002 101.388C213.066 101.445 213.112 101.52 213.131 101.604C213.15 101.688 213.142 101.776 213.109 101.855C213.075 101.934 213.018 102 212.944 102.045C210.209 104.001 201.151 108.95 193.952 95.9406Z" fill="url(#paint5_linear_256_20150)"/>
<path d="M0.0843466 71.4231C0.0377187 71.3367 0.00970377 71.2415 0.00210747 71.1436C-0.00548884 71.0458 0.00750199 70.9474 0.0402427 70.8549C0.0729834 70.7624 0.124748 70.6777 0.192199 70.6064C0.25965 70.5351 0.341292 70.4788 0.431863 70.4409C3.07601 69.3908 12.4363 66.2632 17.5508 72.5638C20.9768 76.7179 25.8224 79.453 31.1493 80.2394C31.2825 80.259 31.4068 80.3182 31.5059 80.4093C31.6051 80.5003 31.6747 80.6191 31.7056 80.7501C31.7366 80.8812 31.7274 81.0185 31.6794 81.1443C31.6314 81.2701 31.5467 81.3786 31.4364 81.4557C26.896 84.6589 11.9603 92.8331 0.0843466 71.4231Z" fill="url(#paint6_linear_256_20150)"/>
<defs>
<linearGradient id="paint0_linear_256_20150" x1="108.975" y1="0" x2="108.975" y2="18.4788" gradientUnits="userSpaceOnUse">
<stop stop-color="#629EFD"/>
<stop offset="1" stop-color="#C1D9FF"/>
</linearGradient>
<linearGradient id="paint1_linear_256_20150" x1="102.593" y1="109.078" x2="125.76" y2="187.044" gradientUnits="userSpaceOnUse">
<stop stop-color="#F1F7FF"/>
<stop offset="1" stop-color="#2589F6" stop-opacity="0.9"/>
</linearGradient>
<linearGradient id="paint2_linear_256_20150" x1="94.0116" y1="23.8826" x2="126.785" y2="164.6" gradientUnits="userSpaceOnUse">
<stop stop-color="#F1F7FF"/>
<stop offset="1" stop-color="#2589F6" stop-opacity="0.9"/>
</linearGradient>
<linearGradient id="paint3_linear_256_20150" x1="198.306" y1="62.1328" x2="198.306" y2="77.4347" gradientUnits="userSpaceOnUse">
<stop stop-color="#629EFD"/>
<stop offset="1" stop-color="#C1D9FF"/>
</linearGradient>
<linearGradient id="paint4_linear_256_20150" x1="22.2084" y1="102.562" x2="22.2084" y2="114.848" gradientUnits="userSpaceOnUse">
<stop stop-color="#629EFD"/>
<stop offset="1" stop-color="#C1D9FF"/>
</linearGradient>
<linearGradient id="paint5_linear_256_20150" x1="203.52" y1="94.3115" x2="203.52" y2="104.613" gradientUnits="userSpaceOnUse">
<stop stop-color="#629EFD"/>
<stop offset="1" stop-color="#C1D9FF"/>
</linearGradient>
<linearGradient id="paint6_linear_256_20150" x1="15.8618" y1="68.7334" x2="15.8618" y2="85.6827" gradientUnits="userSpaceOnUse">
<stop stop-color="#629EFD"/>
<stop offset="1" stop-color="#C1D9FF"/>
</linearGradient>
</defs>
</svg>
