<svg width="32" height="32" viewBox="0 0 32 32" fill="none" xmlns="http://www.w3.org/2000/svg">
<path fill-rule="evenodd" clip-rule="evenodd" d="M13.8193 0.770996H18.1808C20.4522 0.770987 22.2329 0.77098 23.6555 0.906242C25.1056 1.04411 26.2929 1.32997 27.3395 1.97137C28.4356 2.64304 29.3571 3.56458 30.0288 4.66064C30.6702 5.70731 30.9561 6.89462 31.0939 8.34465C31.2292 9.76724 31.2292 11.5479 31.2292 13.8194V15.3313C31.2292 16.9481 31.2292 18.2158 31.1593 19.2398C31.0882 20.2818 30.9413 21.1489 30.6091 21.9508C29.7824 23.9467 28.1966 25.5325 26.2006 26.3593C25.0602 26.8316 23.7614 26.9364 21.983 26.9671C21.361 26.9778 20.967 26.9856 20.6666 27.0189C20.386 27.05 20.2772 27.0955 20.2135 27.1326C20.1464 27.1716 20.0549 27.2428 19.896 27.4608C19.7241 27.6967 19.5298 28.0227 19.2217 28.5431L18.4538 29.8406C17.3579 31.6921 14.6421 31.6921 13.5462 29.8406L12.7782 28.5431C12.4702 28.0227 12.2759 27.6967 12.104 27.4608C11.9451 27.2428 11.8536 27.1716 11.7864 27.1326C11.7228 27.0955 11.614 27.05 11.3333 27.0189C11.033 26.9856 10.639 26.9778 10.0169 26.9671C8.23863 26.9364 6.93978 26.8316 5.7994 26.3593C3.80344 25.5325 2.21766 23.9467 1.39091 21.9508C1.05875 21.1489 0.911796 20.2818 0.840707 19.2398C0.770836 18.2158 0.770839 16.9481 0.770844 15.3313L0.770844 13.8194C0.770835 11.5479 0.770828 9.76725 0.906089 8.34465C1.04396 6.89462 1.32982 5.70731 1.97121 4.66064C2.64288 3.56458 3.56442 2.64304 4.66049 1.97137C5.70715 1.32997 6.89447 1.04411 8.3445 0.906242C9.76709 0.77098 11.5478 0.770987 13.8193 0.770996ZM8.54563 3.0217C7.25115 3.14478 6.42746 3.38082 5.7708 3.78323C4.96066 4.27968 4.27953 4.96082 3.78307 5.77095C3.38067 6.42761 3.14463 7.2513 3.02155 8.54579C2.89696 9.85608 2.89584 11.5359 2.89584 13.8752V15.2918C2.89584 16.9566 2.89642 18.1519 2.96078 19.0952C3.02449 20.0289 3.14712 20.6378 3.35415 21.1376C3.96523 22.6128 5.13733 23.7849 6.61261 24.396C7.34309 24.6986 8.27501 24.8117 10.0536 24.8424L10.0986 24.8432C10.6625 24.8528 11.1566 24.8613 11.5672 24.9068C12.0085 24.9557 12.4401 25.0544 12.8548 25.2957C13.2661 25.5348 13.5627 25.8544 13.8213 26.2092C14.0602 26.537 14.3057 26.9519 14.5839 27.4218L15.3749 28.7582C15.6479 29.2195 16.352 29.2195 16.6251 28.7582L17.4161 27.4218C17.6942 26.9519 17.9398 26.537 18.1787 26.2092C18.4373 25.8544 18.7339 25.5348 19.1451 25.2957C19.5599 25.0544 19.9915 24.9557 20.4327 24.9068C20.8434 24.8613 21.3375 24.8528 21.9013 24.8432L21.9464 24.8424C23.725 24.8117 24.6569 24.6986 25.3874 24.396C26.8627 23.7849 28.0348 22.6128 28.6459 21.1376C28.8529 20.6378 28.9755 20.0289 29.0392 19.0952C29.1036 18.1519 29.1042 16.9566 29.1042 15.2918V13.8752C29.1042 11.5359 29.1031 9.85608 28.9785 8.54579C28.8554 7.2513 28.6194 6.42761 28.2169 5.77095C27.7205 4.96082 27.0394 4.27968 26.2292 3.78323C25.5726 3.38082 24.7489 3.14478 23.4544 3.0217C22.1441 2.89712 20.4643 2.896 18.125 2.896H13.875C11.5358 2.896 9.85593 2.89712 8.54563 3.0217ZM9.27084 11.7502C9.27084 11.1634 9.74654 10.6877 10.3333 10.6877H21.6667C22.2535 10.6877 22.7292 11.1634 22.7292 11.7502C22.7292 12.337 22.2535 12.8127 21.6667 12.8127H10.3333C9.74654 12.8127 9.27084 12.337 9.27084 11.7502ZM9.27084 16.7085C9.27084 16.1217 9.74654 15.646 10.3333 15.646H18.125C18.7118 15.646 19.1875 16.1217 19.1875 16.7085C19.1875 17.2953 18.7118 17.771 18.125 17.771H10.3333C9.74654 17.771 9.27084 17.2953 9.27084 16.7085Z" fill="#253053"/>
</svg>
