<svg width="32" height="32" viewBox="0 0 32 32" fill="none" xmlns="http://www.w3.org/2000/svg">
<path fill-rule="evenodd" clip-rule="evenodd" d="M15.9263 0.770998H16.0737C17.3465 0.770956 18.4079 0.770921 19.2505 0.884207C20.1399 1.00378 20.9429 1.26681 21.5881 1.91206C22.2334 2.55731 22.4964 3.36028 22.616 4.24965C22.6997 4.87242 22.7215 5.6147 22.7272 6.47354C23.6459 6.50303 24.4649 6.55675 25.1928 6.65461C26.8537 6.87791 28.1981 7.34841 29.2582 8.40859C30.3184 9.46877 30.7889 10.8131 31.0122 12.474C31.2292 14.0879 31.2292 16.1501 31.2292 18.7536V18.9134C31.2292 21.5169 31.2292 23.5791 31.0122 25.1929C30.7889 26.8539 30.3184 28.1982 29.2582 29.2584C28.1981 30.3186 26.8537 30.7891 25.1928 31.0124C23.5789 31.2294 21.5168 31.2294 18.9133 31.2293H13.0868C10.4833 31.2294 8.42112 31.2294 6.80723 31.0124C5.1463 30.7891 3.80195 30.3186 2.74177 29.2584C1.68159 28.1982 1.21109 26.8539 0.987785 25.1929C0.770804 23.5791 0.770822 21.5169 0.770844 18.9134V18.7536C0.770822 16.1501 0.770804 14.0879 0.987785 12.474C1.21109 10.8131 1.68159 9.46877 2.74177 8.40859C3.80195 7.34841 5.1463 6.87791 6.80723 6.65461C7.53508 6.55675 8.35409 6.50303 9.27282 6.47354C9.2785 5.6147 9.30032 4.87242 9.38405 4.24965C9.50362 3.36028 9.76666 2.55731 10.4119 1.91206C11.0572 1.26681 11.8601 1.00378 12.7495 0.884207C13.5921 0.770921 14.6535 0.770956 15.9263 0.770998ZM11.3984 6.44018C11.9341 6.43765 12.4965 6.43766 13.0868 6.43767H18.9133C19.5035 6.43766 20.0659 6.43765 20.6016 6.44018C20.5957 5.63223 20.5758 5.02277 20.5099 4.5328C20.422 3.87907 20.2701 3.59928 20.0855 3.41466C19.9009 3.23005 19.6211 3.07815 18.9674 2.99026C18.2831 2.89826 17.3657 2.896 16 2.896C14.6343 2.896 13.717 2.89826 13.0326 2.99026C12.3789 3.07815 12.0991 3.23005 11.9145 3.41466C11.7299 3.59928 11.578 3.87907 11.4901 4.5328C11.4242 5.02277 11.4044 5.63223 11.3984 6.44018ZM6.43751 8.86853C5.40226 9.07633 4.74581 9.40976 4.24437 9.91119C3.64483 10.5107 3.28546 11.3319 3.09384 12.7572C2.8981 14.2131 2.89584 16.1322 2.89584 18.8335C2.89584 21.5348 2.8981 23.4539 3.09384 24.9098C3.28546 26.3351 3.64483 27.1563 4.24437 27.7558C4.74581 28.2572 5.40226 28.5907 6.43751 28.7985V25.5038C6.15395 25.4486 5.82394 25.3284 5.53951 25.044C5.20546 24.71 5.09803 24.313 5.05625 24.0023C5.02059 23.7371 5.02072 23.4229 5.02083 23.1323C5.02084 23.116 5.02084 23.0997 5.02084 23.0835V21.6668C5.02084 21.6506 5.02084 21.6344 5.02083 21.618C5.02072 21.3275 5.02059 21.0132 5.05625 20.748C5.09803 20.4373 5.20546 20.0404 5.53951 19.7063C5.82394 19.4219 6.15395 19.3018 6.43751 19.2466V8.86853ZM8.56251 8.63004V19.1877H13.1667C13.1829 19.1877 13.1991 19.1877 13.2155 19.1877C13.5061 19.1875 13.8203 19.1874 14.0855 19.2231C14.3962 19.2648 14.7931 19.3723 15.1272 19.7063C15.4612 20.0404 15.5687 20.4373 15.6104 20.748C15.6461 21.0132 15.646 21.3275 15.6459 21.618C15.6459 21.6344 15.6458 21.6507 15.6458 21.6668V23.0835C15.6458 23.0997 15.6459 23.1159 15.6459 23.1323C15.646 23.4229 15.6461 23.7371 15.6104 24.0023C15.5687 24.313 15.4612 24.71 15.1272 25.044C14.7931 25.378 14.3962 25.4855 14.0855 25.5273C13.8203 25.5629 13.5061 25.5628 13.2155 25.5627C13.1991 25.5627 13.1829 25.5627 13.1667 25.5627H8.56251V29.037C9.79103 29.1032 11.2901 29.1043 13.1667 29.1043H18.8333C20.7099 29.1043 22.209 29.1032 23.4375 29.037V8.63004C22.209 8.56376 20.7099 8.56267 18.8333 8.56267H13.1667C11.2901 8.56267 9.79103 8.56376 8.56251 8.63004ZM25.5625 8.86853V28.7985C26.5978 28.5907 27.2542 28.2572 27.7556 27.7558C28.3552 27.1563 28.7146 26.3351 28.9062 24.9098C29.1019 23.4539 29.1042 21.5348 29.1042 18.8335C29.1042 16.1322 29.1019 14.2131 28.9062 12.7572C28.7146 11.3319 28.3552 10.5107 27.7556 9.91119C27.2542 9.40976 26.5978 9.07633 25.5625 8.86853ZM7.14748 21.3143C7.14589 21.4127 7.14584 21.5265 7.14584 21.6668V23.0835C7.14584 23.2239 7.14589 23.3376 7.14748 23.436C7.24587 23.4376 7.35965 23.4377 7.50001 23.4377H13.1667C13.307 23.4377 13.4208 23.4376 13.5192 23.436C13.5208 23.3376 13.5208 23.2239 13.5208 23.0835V21.6668C13.5208 21.5265 13.5208 21.4127 13.5192 21.3143C13.4208 21.3127 13.307 21.3127 13.1667 21.3127H7.50001C7.35965 21.3127 7.24587 21.3127 7.14748 21.3143Z" fill="#253053"/>
</svg>
