<svg width="34" height="34" viewBox="0 0 34 34" fill="none" xmlns="http://www.w3.org/2000/svg">
<path fill-rule="evenodd" clip-rule="evenodd" d="M17 6.729C15.4978 6.729 14.2951 7.19361 11.4266 8.34101L7.44796 9.93248C6.01651 10.5051 5.02461 10.9033 4.38169 11.2404C4.31886 11.2733 4.26224 11.3043 4.2113 11.3332C4.26224 11.3621 4.31886 11.393 4.38169 11.4259C5.02461 11.763 6.01651 12.1613 7.44796 12.7339L11.4266 14.3253C14.2951 15.4727 15.4978 15.9373 17 15.9373C18.5023 15.9373 19.7049 15.4727 22.5734 14.3253L26.5521 12.7339C27.9835 12.1613 28.9754 11.763 29.6183 11.4259C29.6812 11.393 29.7378 11.3621 29.7887 11.3332C29.7378 11.3043 29.6812 11.2733 29.6183 11.2404C28.9754 10.9033 27.9835 10.5051 26.5521 9.93248L22.5734 8.34101C19.7049 7.19361 18.5023 6.729 17 6.729ZM10.8013 6.30244C13.4601 5.23861 15.0461 4.604 17 4.604C18.9539 4.604 20.54 5.23861 23.1987 6.30244C23.2529 6.32412 23.3075 6.34597 23.3626 6.368L27.4055 7.98516C28.7578 8.52607 29.8531 8.96417 30.605 9.35836C30.9855 9.55785 31.3542 9.78401 31.6384 10.0567C31.9305 10.3368 32.2292 10.7617 32.2292 11.3332C32.2292 11.9047 31.9305 12.3295 31.6384 12.6097C31.3542 12.8823 30.9855 13.1085 30.605 13.308C29.8531 13.7022 28.7578 14.1403 27.4055 14.6812L23.3626 16.2983C23.3075 16.3204 23.2529 16.3422 23.1987 16.3639C20.54 17.4277 18.9539 18.0623 17 18.0623C15.0461 18.0623 13.4601 17.4277 10.8013 16.3639C10.7471 16.3422 10.6925 16.3204 10.6374 16.2983L6.59452 14.6812C5.24219 14.1403 4.14689 13.7022 3.395 13.308C3.01449 13.1085 2.64585 12.8823 2.3616 12.6097C2.06954 12.3295 1.77084 11.9047 1.77084 11.3332C1.77084 10.7617 2.06954 10.3368 2.3616 10.0567C2.64585 9.78401 3.01448 9.55785 3.395 9.35836C4.14689 8.96417 5.2422 8.52606 6.59454 7.98515L10.6374 6.368C10.6925 6.34597 10.7471 6.32412 10.8013 6.30244ZM3.5402 16.2066L3.54538 16.2111C3.55162 16.2165 3.56324 16.2265 3.58024 16.2407C3.61425 16.2691 3.66977 16.3144 3.74679 16.3739C3.90085 16.4929 4.14077 16.6688 4.46647 16.88C5.11793 17.3025 6.11178 17.8661 7.44796 18.4005L11.4266 19.992C14.2951 21.1394 15.4978 21.604 17 21.604C18.5023 21.604 19.7049 21.1394 22.5734 19.992L26.5521 18.4005C27.8882 17.8661 28.8821 17.3025 29.5335 16.88C29.8593 16.6688 30.0992 16.4929 30.2532 16.3739C30.3302 16.3144 30.3858 16.2691 30.4198 16.2407C30.4368 16.2265 30.4484 16.2165 30.4546 16.2111L30.4576 16.2086C30.4583 16.2079 30.4592 16.2072 30.4599 16.2065C30.8967 15.8172 31.5665 15.8544 31.9576 16.2904C32.3494 16.7272 32.313 17.3989 31.8762 17.7907L31.1667 16.9998C31.8762 17.7907 31.8764 17.7905 31.8762 17.7907L31.8742 17.7925L31.8717 17.7947L31.8652 17.8005L31.8457 17.8175C31.83 17.8311 31.8087 17.8493 31.7817 17.8719C31.7278 17.9169 31.6514 17.9789 31.5526 18.0553C31.355 18.208 31.0674 18.418 30.6898 18.6629C29.9346 19.1527 28.8184 19.7827 27.3413 20.3735L23.3626 21.965C23.3075 21.987 23.2529 22.0089 23.1987 22.0306C20.54 23.0944 18.9539 23.729 17 23.729C15.0461 23.729 13.4601 23.0944 10.8013 22.0306C10.7471 22.0089 10.6925 21.987 10.6374 21.965L6.65875 20.3735C5.18159 19.7827 4.06544 19.1527 3.31022 18.6629C2.93259 18.418 2.645 18.208 2.4474 18.0553C2.34858 17.9789 2.27223 17.9169 2.21832 17.8719C2.19136 17.8493 2.17002 17.8311 2.15427 17.8175L2.13486 17.8005L2.12831 17.7947L2.12582 17.7925L2.1243 17.7911C2.12407 17.7909 2.12386 17.7907 2.83334 16.9998L2.1243 17.7911C1.68749 17.3993 1.6506 16.7272 2.04244 16.2904C2.43349 15.8544 3.10333 15.8172 3.5402 16.2066ZM30.4578 21.8751C30.4585 21.8745 30.4592 21.8738 30.4599 21.8732C30.8967 21.4839 31.5665 21.5211 31.9576 21.957C32.3494 22.3938 32.313 23.0656 31.8762 23.4574L31.1667 22.6665C31.8762 23.4574 31.8764 23.4572 31.8762 23.4574L31.8742 23.4592L31.8717 23.4614L31.8652 23.4672L31.8457 23.4841C31.83 23.4978 31.8087 23.516 31.7817 23.5385C31.7278 23.5835 31.6514 23.6456 31.5526 23.722C31.355 23.8747 31.0674 24.0846 30.6898 24.3295C29.9346 24.8193 28.8184 25.4493 27.3413 26.0402L23.3626 27.6317C23.3075 27.6537 23.2529 27.6756 23.1987 27.6972C20.54 28.7611 18.9539 29.3957 17 29.3957C15.0461 29.3957 13.4601 28.7611 10.8013 27.6972C10.7471 27.6756 10.6925 27.6537 10.6374 27.6317L6.65875 26.0402C5.18159 25.4493 4.06544 24.8193 3.31022 24.3295C2.93259 24.0846 2.645 23.8747 2.4474 23.722C2.34858 23.6456 2.27223 23.5835 2.21832 23.5385C2.19136 23.516 2.17002 23.4978 2.15427 23.4841L2.13486 23.4672L2.12831 23.4614L2.12582 23.4592L2.1243 23.4578C2.12407 23.4576 2.12386 23.4574 2.83334 22.6665L2.1243 23.4578C1.68749 23.066 1.6506 22.3938 2.04244 21.957C2.43347 21.5211 3.10326 21.4839 3.54013 21.8732C3.53986 21.8729 3.54041 21.8734 3.54013 21.8732C3.5404 21.8734 3.5415 21.8744 3.54176 21.8746C3.54154 21.8744 3.54198 21.8748 3.54176 21.8746L3.54538 21.8778C3.55162 21.8832 3.56324 21.8931 3.58024 21.9073C3.61425 21.9357 3.66977 21.981 3.74679 22.0405C3.90085 22.1596 4.14077 22.3354 4.46647 22.5467C5.11793 22.9691 6.11178 23.5327 7.44796 24.0672L11.4266 25.6587C14.2951 26.8061 15.4978 27.2707 17 27.2707C18.5023 27.2707 19.7049 26.8061 22.5734 25.6587L26.5521 24.0672C27.8882 23.5327 28.8821 22.9691 29.5335 22.5467C29.8593 22.3354 30.0992 22.1596 30.2532 22.0405C30.3302 21.981 30.3858 21.9357 30.4198 21.9073C30.4368 21.8931 30.4484 21.8832 30.4546 21.8778L30.4578 21.8751Z" fill="#253053"/>
</svg>
